<svg width="2006" height="420" viewBox="0 0 2006 420" fill="none" xmlns="http://www.w3.org/2000/svg">
<path d="M-6.03906 64.9978C106.41 62.7051 218.859 60.4125 331.308 45.2553C443.758 30.0982 556.207 2.07668 668.656 0.834812C781.105 -0.407052 893.554 25.1308 1006 30.4485C1118.45 35.7662 1230.9 20.8692 1343.35 20.5773C1455.8 20.2854 1568.25 34.5933 1680.7 50.1909C1793.15 65.7885 1905.6 82.6652 2018.05 99.5471V435.169C1905.6 435.169 1793.15 435.169 1680.7 435.169C1568.25 435.169 1455.8 435.169 1343.35 435.169C1230.9 435.169 1118.45 435.169 1006 435.169C893.554 435.169 781.105 435.169 668.656 435.169C556.207 435.169 443.758 435.169 331.308 435.169C218.859 435.169 106.41 435.169 -6.03906 435.169V64.9978Z" fill="#FDDAEA" fill-opacity="0.19"/>
<path d="M-6.03906 30.4473C106.41 32.8727 218.859 35.298 331.308 55.1254C443.758 74.9528 556.207 112.182 668.656 129.16C781.105 146.137 893.554 142.868 1006 134.095C1118.45 125.323 1230.9 111.041 1343.35 84.7391C1455.8 58.437 1568.25 20.1144 1680.7 25.5117C1793.15 30.9091 1905.6 80.037 2018.05 129.16V435.168C1905.6 435.168 1793.15 435.168 1680.7 435.168C1568.25 435.168 1455.8 435.168 1343.35 435.168C1230.9 435.168 1118.45 435.168 1006 435.168C893.554 435.168 781.105 435.168 668.656 435.168C556.207 435.168 443.758 435.168 331.308 435.168C218.859 435.168 106.41 435.168 -6.03906 435.168V30.4473Z" fill="#FDDAE8" fill-opacity="0.3"/>
<path d="M-6.03906 148.903C106.41 129.416 218.859 109.928 331.308 94.6115C443.758 79.2952 556.207 68.145 668.656 74.8691C781.105 81.5932 893.554 106.181 1006 129.161C1118.45 152.141 1230.9 173.502 1343.35 168.646C1455.8 163.79 1568.25 132.706 1680.7 119.29C1793.15 105.873 1905.6 110.114 2018.05 114.354V435.169C1905.6 435.169 1793.15 435.169 1680.7 435.169C1568.25 435.169 1455.8 435.169 1343.35 435.169C1230.9 435.169 1118.45 435.169 1006 435.169C893.554 435.169 781.105 435.169 668.656 435.169C556.207 435.169 443.758 435.169 331.308 435.169C218.859 435.169 106.41 435.169 -6.03906 435.169V148.903Z" fill="#FDDAE8" fill-opacity="0.3"/>
<path d="M-6.03906 183.453C106.41 168.221 218.859 152.985 331.308 148.904C443.758 144.822 556.207 151.886 668.656 139.032C781.105 126.179 893.554 93.4071 1006 104.483C1118.45 115.559 1230.9 170.488 1343.35 178.517C1455.8 186.547 1568.25 147.672 1680.7 129.161C1793.15 110.65 1905.6 112.502 2018.05 114.354V435.169C1905.6 435.169 1793.15 435.169 1680.7 435.169C1568.25 435.169 1455.8 435.169 1343.35 435.169C1230.9 435.169 1118.45 435.169 1006 435.169C893.554 435.169 781.105 435.169 668.656 435.169C556.207 435.169 443.758 435.169 331.308 435.169C218.859 435.169 106.41 435.169 -6.03906 435.169V183.453Z" fill="#FDDAE8" fill-opacity="0.2"/>
<path d="M-6.03906 168.645C106.41 198.752 218.859 228.865 331.308 222.937C443.758 217.009 556.207 175.045 668.656 168.645C781.105 162.245 893.554 191.402 1006 188.387C1118.45 185.373 1230.9 150.176 1343.35 153.838C1455.8 157.5 1568.25 200.01 1680.7 203.194C1793.15 206.379 1905.6 170.237 2018.05 134.096V435.168C1905.6 435.168 1793.15 435.168 1680.7 435.168C1568.25 435.168 1455.8 435.168 1343.35 435.168C1230.9 435.168 1118.45 435.168 1006 435.168C893.554 435.168 781.105 435.168 668.656 435.168C556.207 435.168 443.758 435.168 331.308 435.168C218.859 435.168 106.41 435.168 -6.03906 435.168V168.645Z" fill="#FFC6CE" fill-opacity="0.56"/>
<path d="M-6.03906 203.195C106.41 174.807 218.859 146.42 331.308 143.968C443.758 141.516 556.207 165.005 668.656 188.388C781.105 211.771 893.554 235.059 1006 227.873C1118.45 220.687 1230.9 183.039 1343.35 183.453C1455.8 183.867 1568.25 222.354 1680.7 227.873C1793.15 233.393 1905.6 205.955 2018.05 178.517V435.169C1905.6 435.169 1793.15 435.169 1680.7 435.169C1568.25 435.169 1455.8 435.169 1343.35 435.169C1230.9 435.169 1118.45 435.169 1006 435.169C893.554 435.169 781.105 435.169 668.656 435.169C556.207 435.169 443.758 435.169 331.308 435.169C218.859 435.169 106.41 435.169 -6.03906 435.169V203.195Z" fill="#F7C2CA" fill-opacity="0.4"/>
<path d="M-6.03906 213.065C106.41 202.462 218.859 191.858 331.308 198.259C443.758 204.659 556.207 228.058 668.656 222.937C781.105 217.815 893.554 184.163 1006 188.387C1118.45 192.612 1230.9 234.702 1343.35 257.486C1455.8 280.269 1568.25 283.735 1680.7 277.228C1793.15 270.722 1905.6 254.233 2018.05 237.743V435.168C1905.6 435.168 1793.15 435.168 1680.7 435.168C1568.25 435.168 1455.8 435.168 1343.35 435.168C1230.9 435.168 1118.45 435.168 1006 435.168C893.554 435.168 781.105 435.168 668.656 435.168C556.207 435.168 443.758 435.168 331.308 435.168C218.859 435.168 106.41 435.168 -6.03906 435.168V213.065Z" fill="#F8CAD4"/>
<path d="M-6.03906 203.195C106.41 212.281 218.859 221.367 331.308 242.68C443.757 263.994 556.207 297.529 668.656 287.101C781.105 276.672 893.554 222.28 1006 218.002C1118.45 213.725 1230.9 259.562 1343.35 282.165C1455.8 304.768 1568.25 304.137 1680.7 301.908C1793.15 299.679 1905.6 295.857 2018.05 292.036V435.169C1905.6 435.169 1793.15 435.169 1680.7 435.169C1568.25 435.169 1455.8 435.169 1343.35 435.169C1230.9 435.169 1118.45 435.169 1006 435.169C893.554 435.169 781.105 435.169 668.656 435.169C556.207 435.169 443.757 435.169 331.308 435.169C218.859 435.169 106.41 435.169 -6.03906 435.169V203.195Z" fill="#FE7BAF" fill-opacity="0.33"/>
<path d="M-6.03906 346.327C106.41 352.701 218.859 359.07 331.308 346.327C443.758 333.585 556.207 301.721 668.656 296.971C781.105 292.221 893.554 314.575 1006 316.714C1118.45 318.853 1230.9 300.776 1343.35 287.1C1455.8 273.424 1568.25 264.157 1680.7 272.293C1793.15 280.429 1905.6 305.977 2018.05 331.521V435.168C1905.6 435.168 1793.15 435.168 1680.7 435.168C1568.25 435.168 1455.8 435.168 1343.35 435.168C1230.9 435.168 1118.45 435.168 1006 435.168C893.554 435.168 781.105 435.168 668.656 435.168C556.207 435.168 443.758 435.168 331.308 435.168C218.859 435.168 106.41 435.168 -6.03906 435.168V346.327Z" fill="#FB71A8" fill-opacity="0.19"/>
<path d="M-6.03906 282.164C106.41 286.351 218.859 290.533 331.308 301.907C443.757 313.28 556.207 331.839 668.656 341.391C781.105 350.944 893.554 351.48 1006 356.198C1118.45 360.916 1230.9 369.806 1343.35 375.941C1455.8 382.076 1568.25 385.451 1680.7 371.005C1793.15 356.559 1905.6 324.297 2018.05 292.035V435.168C1905.6 435.168 1793.15 435.168 1680.7 435.168C1568.25 435.168 1455.8 435.168 1343.35 435.168C1230.9 435.168 1118.45 435.168 1006 435.168C893.554 435.168 781.105 435.168 668.656 435.168C556.207 435.168 443.757 435.168 331.308 435.168C218.859 435.168 106.41 435.168 -6.03906 435.168V282.164Z" fill="#DC78A0" fill-opacity="0.29"/>
</svg>
