<svg width="828" height="740" viewBox="0 0 828 740" fill="none" xmlns="http://www.w3.org/2000/svg">
<path d="M5.14264 591L1 596.235M5.14264 626.774L1 632.009M5.14264 662.548L1 667.784M5.14264 698.323L1 703.558M5.14264 734.097L1 739.332M33.4507 591L29.308 596.235M33.4507 626.774L29.308 632.009M33.4507 662.548L29.308 667.784M33.4507 698.323L29.308 703.558M33.4507 734.097L29.308 739.332M61.7587 591L57.6161 596.235M61.7587 626.774L57.6161 632.009M61.7587 662.548L57.6161 667.784M61.7587 698.323L57.6161 703.558M61.7587 734.097L57.6161 739.332M90.0668 591L85.9241 596.235M90.0668 626.774L85.9241 632.009M90.0668 662.548L85.9241 667.784M90.0668 698.323L85.9241 703.558M90.0668 734.097L85.9241 739.332M118.375 591L114.232 596.235M118.375 626.774L114.232 632.009M118.375 662.548L114.232 667.784M118.375 698.323L114.232 703.558M118.375 734.097L114.232 739.332M146.683 591L142.54 596.235M146.683 626.774L142.54 632.009M146.683 662.548L142.54 667.784M146.683 698.323L142.54 703.558M146.683 734.097L142.54 739.332" stroke="black" stroke-width="2"/>
<path d="M685.143 1L681 6.23525M685.143 36.7742L681 42.0095M685.143 72.5484L681 77.7837M685.143 108.323L681 113.558M685.143 144.097L681 149.332M713.451 1L709.308 6.23525M713.451 36.7742L709.308 42.0095M713.451 72.5484L709.308 77.7837M713.451 108.323L709.308 113.558M713.451 144.097L709.308 149.332M741.759 1L737.616 6.23525M741.759 36.7742L737.616 42.0095M741.759 72.5484L737.616 77.7837M741.759 108.323L737.616 113.558M741.759 144.097L737.616 149.332M770.067 1L765.924 6.23525M770.067 36.7742L765.924 42.0095M770.067 72.5484L765.924 77.7837M770.067 108.323L765.924 113.558M770.067 144.097L765.924 149.332M798.375 1L794.232 6.23525M798.375 36.7742L794.232 42.0095M798.375 72.5484L794.232 77.7837M798.375 108.323L794.232 113.558M798.375 144.097L794.232 149.332M826.683 1L822.54 6.23525M826.683 36.7742L822.54 42.0095M826.683 72.5484L822.54 77.7837M826.683 108.323L822.54 113.558M826.683 144.097L822.54 149.332" stroke="black" stroke-width="2"/>
</svg>
