<svg width="100" height="16" viewBox="0 0 100 16" fill="none" xmlns="http://www.w3.org/2000/svg">
<mask id="path-1-inside-1_3026_1501" fill="white">
<path d="M0 0H100V16H0V0Z"/>
</mask>
<path d="M100 15H0V17H100V15Z" fill="#FF6EAF" mask="url(#path-1-inside-1_3026_1501)"/>
<g clip-path="url(#clip0_3026_1501)">
<path d="M51.7455 15.1847C51.6786 15.2517 51.5967 15.2852 51.5 15.2852C51.4033 15.2852 51.3214 15.2517 51.2545 15.1847L47.7723 11.8253C47.7351 11.7956 47.684 11.7472 47.6189 11.6802C47.5538 11.6133 47.4505 11.4914 47.3092 11.3147C47.1678 11.138 47.0413 10.9567 46.9297 10.7706C46.8181 10.5846 46.7186 10.3596 46.6311 10.0954C46.5437 9.83129 46.5 9.57459 46.5 9.32534C46.5 8.50688 46.7362 7.867 47.2087 7.40569C47.6812 6.94438 48.3341 6.71373 49.1674 6.71373C49.3981 6.71373 49.6334 6.75372 49.8733 6.83371C50.1133 6.91369 50.3365 7.02158 50.543 7.15737C50.7494 7.29316 50.9271 7.42057 51.0759 7.53962C51.2247 7.65867 51.3661 7.78516 51.5 7.91909C51.6339 7.78516 51.7753 7.65867 51.9241 7.53962C52.0729 7.42057 52.2506 7.29316 52.457 7.15737C52.6635 7.02158 52.8867 6.91369 53.1267 6.83371C53.3666 6.75372 53.6019 6.71373 53.8326 6.71373C54.6659 6.71373 55.3188 6.94438 55.7913 7.40569C56.2638 7.867 56.5 8.50688 56.5 9.32534C56.5 10.1475 56.074 10.9846 55.2221 11.8365L51.7455 15.1847Z" fill="#FF84AD"/>
</g>
<defs>
<clipPath id="clip0_3026_1501">
<rect width="10" height="10" fill="white" transform="matrix(1 0 0 -1 46.5 16)"/>
</clipPath>
</defs>
</svg>
